/* XPM */
static char * zero_xpm[] = {
    "15 20 2 1",
    " 	c #1E1E2E",
    ".	c #FFFFFF",
    "               ",
    "               ",
    "               ",
    "               ",
    "               ",
    "               ",
    "     .....     ",
    "     .....     ",
    "     .. ..     ",
    "     .. ..     ",
    "     .. ..     ",
    "     .. ..     ",
    "     .. ..     ",
    "     .. ..     ",
    "     .....     ",
    "     .....     ",
    "               ",
    "               ",
    "               ",
    "               "};
    
static char * one_xpm[] = {
    "15 20 2 1",
    " 	c #1E1E2E",
    ".	c #FFFFFF",
    "               ",
    "               ",
    "               ",
    "               ",
    "               ",
    "               ",
    "      ...      ",
    "     ....      ",
    "     ....      ",
    "       ..      ",
    "       ..      ",
    "       ..      ",
    "       ..      ",
    "       ..      ",
    "     .....     ",
    "     .....     ",
    "               ",
    "               ",
    "               ",
    "               "};

    /* XPM */
static char * two_xpm[] = {
    "15 20 2 1",
    " 	c #1E1E2E",
    ".	c #FFFFFF",
    "               ",
    "               ",
    "               ",
    "               ",
    "               ",
    "               ",
    "     .....     ",
    "     .....     ",
    "        ..     ",
    "        ..     ",
    "     .....     ",
    "     .....     ",
    "     ..        ",
    "     ..        ",
    "     .....     ",
    "     .....     ",
    "               ",
    "               ",
    "               ",
    "               "};
    

/* XPM */
static char * three_xpm[] = {
    "15 20 2 1",
    " 	c #1E1E2E",
    ".	c #FFFFFF",
    "               ",
    "               ",
    "               ",
    "               ",
    "               ",
    "               ",
    "     .....     ",
    "     .....     ",
    "        ..     ",
    "        ..     ",
    "      ....     ",
    "      ....     ",
    "        ..     ",
    "        ..     ",
    "     .....     ",
    "     .....     ",
    "               ",
    "               ",
    "               ",
    "               "};

    
        
    /* XPM */
static char * four_xpm[] = {
    "15 20 2 1",
    " 	c #1E1E2E",
    ".	c #FFFFFF",
    "               ",
    "               ",
    "               ",
    "               ",
    "               ",
    "               ",
    "     .. ..     ",
    "     .. ..     ",
    "     .. ..     ",
    "     .. ..     ",
    "     .....     ",
    "     .....     ",
    "        ..     ",
    "        ..     ",
    "        ..     ",
    "        ..     ",
    "               ",
    "               ",
    "               ",
    "               "};

    /* XPM */
static char * five_xpm[] = {
    "15 20 2 1",
    " 	c #1E1E2E",
    ".	c #FFFFFF",
    "               ",
    "               ",
    "               ",
    "               ",
    "               ",
    "               ",
    "     .....     ",
    "     .....     ",
    "     ..        ",
    "     ..        ",
    "     .....     ",
    "     .....     ",
    "        ..     ",
    "        ..     ",
    "     .....     ",
    "     .....     ",
    "               ",
    "               ",
    "               ",
    "               "};

    /* XPM */
static char * six_xpm[] = {
    "15 20 2 1",
    " 	c #1E1E2E",
    ".	c #FFFFFF",
    "               ",
    "               ",
    "               ",
    "               ",
    "               ",
    "               ",
    "     .....     ",
    "     .....     ",
    "     ..        ",
    "     ..        ",
    "     .....     ",
    "     .....     ",
    "     .. ..     ",
    "     .. ..     ",
    "     .....     ",
    "     .....     ",
    "               ",
    "               ",
    "               ",
    "               "};

    /* XPM */
static char * seven_xpm[] = {
    "15 20 2 1",
    " 	c #1E1E2E",
    ".	c #FFFFFF",
    "               ",
    "               ",
    "               ",
    "               ",
    "               ",
    "               ",
    "     .....     ",
    "     .....     ",
    "     .. ..     ",
    "        ..     ",
    "        ..     ",
    "        ..     ",
    "        ..     ",
    "        ..     ",
    "        ..     ",
    "        ..     ",
    "               ",
    "               ",
    "               ",
    "               "};

    /* XPM */
static char * eight_xpm[] = {
    "15 20 2 1",
    " 	c #1E1E2E",
    ".	c #FFFFFF",
    "               ",
    "               ",
    "               ",
    "               ",
    "               ",
    "               ",
    "     .....     ",
    "     .....     ",
    "     .. ..     ",
    "     .. ..     ",
    "     .....     ",
    "     .....     ",
    "     .. ..     ",
    "     .. ..     ",
    "     .....     ",
    "     .....     ",
    "               ",
    "               ",
    "               ",
    "               "};

    /* XPM */
static char * nine_xpm[] = {
    "15 20 2 1",
    " 	c #1E1E2E",
    ".	c #FFFFFF",
    "               ",
    "               ",
    "               ",
    "               ",
    "               ",
    "               ",
    "     .....     ",
    "     .....     ",
    "     .. ..     ",
    "     .. ..     ",
    "     .....     ",
    "     .....     ",
    "        ..     ",
    "        ..     ",
    "     .....     ",
    "     .....     ",
    "               ",
    "               ",
    "               ",
    "               "};
