/* XPM */
static char *font_W[] = {
"15 20 2 1",
"  c None",
"X c #000000",
"               ",
"               ",
"               ",
"               ",
"XX     X     X ",
" X    XX     X ",
" X    XXX   XX ",
" X    XXX   X  ",
" XX  XX X   X  ",
"  X  XX X   X  ",
"  X  X  XX XX  ",
"  XX X   X X   ",
"  XXXX   XXX   ",
"   XX    XXX   ",
"   XX    XXX   ",
"   XX     X    ",
"               ",
"               ",
"               ",
"               ",
};
