/* XPM */
static char *font_U[] = {
"15 20 2 1",
"  c None",
"X c #000000",
"               ",
"               ",
"               ",
"               ",
" X     XX      ",
" X     XX      ",
" X     XX      ",
" X     XX      ",
" X     XX      ",
" X     XX      ",
" X     XX      ",
" X     XX      ",
" X     X       ",
" XX    X       ",
"  XX  XX       ",
"   XXX         ",
"               ",
"               ",
"               ",
"               ",
};
