/* XPM */
static char *font_N[] = {
"15 20 2 1",
"  c None",
"X c #000000",
"               ",
"               ",
"               ",
"               ",
" XX    X       ",
" XX    X       ",
" XXX   X       ",
" XXX   X       ",
" X XX  X       ",
" X  X  X       ",
" X  XX X       ",
" X   X X       ",
" X   XXX       ",
" X    XX       ",
" X    XX       ",
" X     X       ",
"               ",
"               ",
"               ",
"               ",
};
