/* XPM */
static char *font_Y[] = {
"9 12 2 1",
". c #000000",
"@ c #FFFFFF",
"###...###",
"###.#.###",
"#########",
"..#####..",
"..#####..",
"...###...",
"...###...",
"...###...",
"...###...",
"...###...",
"...###...",
"...###..."
};
