/* XPM */
static char *font_O[] = {
"15 20 2 1",
"  c None",
"X c #000000",
"               ",
"               ",
"               ",
"               ",
"   XXXXX       ",
"  XX   XX      ",
" XX     XX     ",
" X       X     ",
" X       X     ",
" X       XX    ",
" X       XX    ",
" X       X     ",
" X       X     ",
" XX     XX     ",
"  XX   XX      ",
"   XXXXX       ",
"               ",
"               ",
"               ",
"               ",
};
