/* XPM */
static char *font_B[] = {
"15 20 2 1",
"  c None",
"X c #000000",
"               ",
"               ",
"               ",
"               ",
" XXXXXX        ",
" X    XX       ",
" X     X       ",
" X     X       ",
" X    XX       ",
" XXXXXX        ",
" X    XX       ",
" X     XX      ",
" X     XX      ",
" X     XX      ",
" X    XX       ",
" XXXXXX        ",
"               ",
"               ",
"               ",
"               ",
};
