/* XPM */
static char *font_T[] = {
"15 20 2 1",
"  c None",
"X c #000000",
"               ",
"               ",
"               ",
"               ",
"XXXXXXXXX      ",
"    X          ",
"    X          ",
"    X          ",
"    X          ",
"    X          ",
"    X          ",
"    X          ",
"    X          ",
"    X          ",
"    X          ",
"    X          ",
"               ",
"               ",
"               ",
"               ",
};
