/* XPM */
static char *font_G[] = {
"15 20 2 1",
"  c None",
"X c #000000",
"               ",
"               ",
"               ",
"               ",
"   XXXXX       ",
"  XX  XXX      ",
" XX     X      ",
" X             ",
" X             ",
" X             ",
" X   XXXXX     ",
" X      XX     ",
" X      XX     ",
" XX     XX     ",
"  XX   XX      ",
"   XXXXX       ",
"               ",
"               ",
"               ",
"               ",
};
