/* XPM */
static char *font_P[] = {
"15 20 2 1",
"  c None",
"X c #000000",
"               ",
"               ",
"               ",
"               ",
" XXXXXX        ",
" X    XX       ",
" X     X       ",
" X     XX      ",
" X     X       ",
" X    XX       ",
" XXXXXX        ",
" X             ",
" X             ",
" X             ",
" X             ",
" X             ",
"               ",
"               ",
"               ",
"               ",
};
