/* XPM */
static char *font_X[] = {
"15 20 2 1",
"  c None",
"X c #000000",
"               ",
"               ",
"               ",
"               ",
" X     X       ",
" XX   XX       ",
"  X   X        ",
"  XX XX        ",
"   XXX         ",
"   XXX         ",
"   XXX         ",
"  XX X         ",
"  XX XX        ",
" XX   X        ",
" X    XX       ",
"XX     XX      ",
"               ",
"               ",
"               ",
"               ",
};
