/* XPM */
static char *font_W[] = {
"12 12 2 1",
". c #000000",
"@ c #FFFFFF",
"###......###",
"###......###",
"###......###",
"###......###",
"###..#...###",
"###.####.###",
"###..##..###",
"###.####.###",
"###..##..###",
"############",
".##########.",
".#########.."
};
