/* XPM */
static char *font_Y[] = {
"15 20 2 1",
"  c None",
"X c #000000",
"               ",
"               ",
"               ",
"               ",
"XX     XX      ",
" X     X       ",
" XX   XX       ",
"  X   X        ",
"  XX XX        ",
"   XXX         ",
"    XX         ",
"    X          ",
"    X          ",
"    X          ",
"    X          ",
"    X          ",
"               ",
"               ",
"               ",
"               ",
};
