/* XPM */
static char *font_S[] = {
"15 20 2 1",
"  c None",
"X c #000000",
"               ",
"               ",
"               ",
"               ",
"  XXXX         ",
" XX  XX        ",
" X    XX       ",
" X     X       ",
" XX            ",
"  XXX          ",
"    XXX        ",
"      XX       ",
"       X       ",
" X     X       ",
" XX   XX       ",
"  XXXXX        ",
"               ",
"               ",
"               ",
"               ",
};
