/* XPM */
static char *font_M[] = {
"15 20 2 1",
"  c None",
"X c #000000",
"               ",
"               ",
"               ",
"               ",
" XX     XX     ",
" XX     XX     ",
" XX     XX     ",
" XXX   XXX     ",
" XXX   XXX     ",
" X X   X X     ",
" X XX XX X     ",
" X XX XX X     ",
" X  X X  X     ",
" X  XXX  X     ",
" X  XXX  X     ",
" X   X   X     ",
"               ",
"               ",
"               ",
"               ",
};
