/* XPM */
static char *font_E[] = {
"15 20 2 1",
"  c None",
"X c #000000",
"               ",
"               ",
"               ",
"               ",
" XXXXXXX       ",
" X             ",
" X             ",
" X             ",
" X             ",
" XXXXXX        ",
" X             ",
" X             ",
" X             ",
" X             ",
" X             ",
" XXXXXXX       ",
"               ",
"               ",
"               ",
"               ",
};
