/* XPM */
static char *font_H[] = {
"15 20 2 1",
"  c None",
"X c #000000",
"               ",
"               ",
"               ",
"               ",
" X     XX      ",
" X     XX      ",
" X     XX      ",
" X     XX      ",
" X     XX      ",
" XXXXXXXX      ",
" X     XX      ",
" X     XX      ",
" X     XX      ",
" X     XX      ",
" X     XX      ",
" X     XX      ",
"               ",
"               ",
"               ",
"               ",
};
