/* XPM */
static char *font_Z[] = {
"15 20 2 1",
"  c None",
"X c #000000",
"               ",
"               ",
"               ",
"               ",
" XXXXXXX       ",
"      X        ",
"     XX        ",
"     X         ",
"    XX         ",
"   XX          ",
"   XX          ",
"  XX           ",
"  X            ",
" XX            ",
" X             ",
"XXXXXXXX       ",
"               ",
"               ",
"               ",
"               ",
};
