/* XPM */
static char *font_Q[] = {
"15 20 2 1",
"  c None",
"X c #000000",
"               ",
"               ",
"               ",
"               ",
"   XXXXX       ",
"  XX   XX      ",
" XX     XX     ",
" X       X     ",
" X       X     ",
" X       XX    ",
" X       XX    ",
" X       X     ",
" X       X     ",
" XX   X XX     ",
"  XX  XXX      ",
"   XXXXXX      ",
"               ",
"               ",
"               ",
"               ",
};
