/* XPM */
static char *font_J[] = {
"15 20 2 1",
"  c None",
"X c #000000",
"               ",
"               ",
"               ",
"               ",
"   X           ",
"   X           ",
"   X           ",
"   X           ",
"   X           ",
"   X           ",
"   X           ",
"   X           ",
"   X           ",
"  XX           ",
"  XX           ",
"XXX            ",
"               ",
"               ",
"               ",
"               ",
};
