/* XPM */
static char *font_C[] = {
"9 12 2 1",
". c #000000",
"@ c #FFFFFF",
"..#######",
"#########",
"#########",
"###......",
"###......",
"###......",
"###......",
"###......",
"###......",
"#########",
".########",
".########"
};
