/* XPM */
static char *font_D[] = {
"15 20 2 1",
"  c None",
"X c #000000",
"               ",
"               ",
"               ",
"               ",
" XXXXX         ",
" X   XXX       ",
" X     X       ",
" X     XX      ",
" X      X      ",
" X      X      ",
" X      X      ",
" X      X      ",
" X     XX      ",
" X     X       ",
" X   XXX       ",
" XXXXX         ",
"               ",
"               ",
"               ",
"               ",
};
