/* XPM */
static char *font_J[] = {
"9 12 2 1",
". c #000000",
"@ c #FFFFFF",
"......###",
"......###",
"......###",
"......###",
"......###",
"......###",
"###...###",
"###...###",
"###...###",
"#########",
".#######.",
".######.."
};
