/* XPM */
static char *font_Z[] = {
"9 12 2 1",
". c #000000",
"@ c #FFFFFF",
"#########",
"#########",
"#########",
".....####",
"...#####.",
"...####..",
"..####...",
"#####....",
"####.....",
"#########",
"#########",
"#########"
};
