/* XPM */
static char *font_G[] = {
"9 12 2 1",
". c #000000",
"@ c #FFFFFF",
"..#######",
"#########",
"#########",
"###......",
"###......",
"###......",
"###..####",
"###..####",
"###...###",
"#########",
".########",
".########"
};
