/* XPM */
static char *font_V[] = {
"15 20 2 1",
"  c None",
"X c #000000",
"               ",
"               ",
"               ",
"               ",
"XX      X      ",
" X     XX      ",
" X     XX      ",
" XX    X       ",
"  X   XX       ",
"  X   XX       ",
"  XX  X        ",
"   X XX        ",
"   X XX        ",
"   XXX         ",
"    XX         ",
"    X          ",
"               ",
"               ",
"               ",
"               ",
};
