/* XPM */
static char *font_Ar[] = {
"15 20 2 1",
"  c #1E1E2E",
"X c #FF0000",
"               ",
"               ",
"               ",
"               ",
"    XX         ",
"    XX         ",
"   XXXX        ",
"   X  X        ",
"   X  X        ",
"  XX  XX       ",
"  X    X       ",
"  XXXXXX       ",
" XX    XX      ",
" X      X      ",
" X      X      ",
"XX      XX     ",
"               ",
"               ",
"               ",
"               ",
};

static char *font_Br[] = {
"15 20 2 1",
"  c #1E1E2E",
"X c #FF0000",
"               ",
"               ",
"               ",
"               ",
" XXXXXX        ",
" X    XX       ",
" X     X       ",
" X     X       ",
" X    XX       ",
" XXXXXX        ",
" X    XX       ",
" X     XX      ",
" X     XX      ",
" X     XX      ",
" X    XX       ",
" XXXXXX        ",
"               ",
"               ",
"               ",
"               ",
};

static char *font_Cr[] = {
"15 20 2 1",
"  c #1E1E2E",
"X c #FF0000",
"               ",
"               ",
"               ",
"               ",
"   XXXXX       ",
"  XX  XXX      ",
" XX     X      ",
" X             ",
" X             ",
" X             ",
" X             ",
" X             ",
" X             ",
" XX     X      ",
"  XX   XX      ",
"   XXXXX       ",
"               ",
"               ",
"               ",
"               ",
};

static char *font_Dr[] = {
"15 20 2 1",
"  c #1E1E2E",
"X c #FF0000",
"               ",
"               ",
"               ",
"               ",
" XXXXX         ",
" X   XXX       ",
" X     X       ",
" X     XX      ",
" X      X      ",
" X      X      ",
" X      X      ",
" X      X      ",
" X     XX      ",
" X     X       ",
" X   XXX       ",
" XXXXX         ",
"               ",
"               ",
"               ",
"               ",
};

static char *font_Er[] = {
"15 20 2 1",
"  c #1E1E2E",
"X c #FF0000",
"               ",
"               ",
"               ",
"               ",
" XXXXXXX       ",
" X             ",
" X             ",
" X             ",
" X             ",
" XXXXXX        ",
" X             ",
" X             ",
" X             ",
" X             ",
" X             ",
" XXXXXXX       ",
"               ",
"               ",
"               ",
"               ",
};

static char *font_Fr[] = {
"15 20 2 1",
"  c #1E1E2E",
"X c #FF0000",
"               ",
"               ",
"               ",
"               ",
" XXXXXXX       ",
" X             ",
" X             ",
" X             ",
" X             ",
" XXXXXX        ",
" X             ",
" X             ",
" X             ",
" X             ",
" X             ",
" X             ",
"               ",
"               ",
"               ",
"               ",
};

static char *font_Gr[] = {
"15 20 2 1",
"  c #1E1E2E",
"X c #FF0000",
"               ",
"               ",
"               ",
"               ",
"   XXXXX       ",
"  XX  XXX      ",
" XX     X      ",
" X             ",
" X             ",
" X             ",
" X   XXXXX     ",
" X      XX     ",
" X      XX     ",
" XX     XX     ",
"  XX   XX      ",
"   XXXXX       ",
"               ",
"               ",
"               ",
"               ",
};

static char *font_Hr[] = {
"15 20 2 1",
"  c #1E1E2E",
"X c #FF0000",
"               ",
"               ",
"               ",
"               ",
" X     XX      ",
" X     XX      ",
" X     XX      ",
" X     XX      ",
" X     XX      ",
" XXXXXXXX      ",
" X     XX      ",
" X     XX      ",
" X     XX      ",
" X     XX      ",
" X     XX      ",
" X     XX      ",
"               ",
"               ",
"               ",
"               ",
};

static char *font_Ir[] = {
"15 20 2 1",
"  c #1E1E2E",
"X c #FF0000",
"               ",
"               ",
"               ",
"               ",
" X             ",
" X             ",
" X             ",
" X             ",
" X             ",
" X             ",
" X             ",
" X             ",
" X             ",
" X             ",
" X             ",
" X             ",
"               ",
"               ",
"               ",
"               ",
};

static char *font_Jr[] = {
"15 20 2 1",
"  c #1E1E2E",
"X c #FF0000",
"               ",
"               ",
"               ",
"               ",
"   X           ",
"   X           ",
"   X           ",
"   X           ",
"   X           ",
"   X           ",
"   X           ",
"   X           ",
"   X           ",
"  XX           ",
"  XX           ",
"XXX            ",
"               ",
"               ",
"               ",
"               ",
};

static char *font_Kr[] = {
"15 20 2 1",
"  c #1E1E2E",
"X c #FF0000",
"               ",
"               ",
"               ",
"               ",
" X     X       ",
" X     X       ",
" X    XX       ",
" X    XX       ",
" X   XX        ",
" XXXXX         ",
" X   XX        ",
" X    XX       ",
" X     X       ",
" X     X       ",
" X     X       ",
" X     XX      ",
"               ",
"               ",
"               ",
"               ",
};

static char *font_Lr[] = {
"15 20 2 1",
"  c #1E1E2E",
"X c #FF0000",
"               ",
"               ",
"               ",
"               ",
" X             ",
" X             ",
" X             ",
" X             ",
" X             ",
" X             ",
" X             ",
" X             ",
" X             ",
" X             ",
" X             ",
" XXXXXXX       ",
"               ",
"               ",
"               ",
"               ",
};

static char *font_Mr[] = {
"15 20 2 1",
"  c #1E1E2E",
"X c #FF0000",
"               ",
"               ",
"               ",
"               ",
" XX     XX     ",
" XX     XX     ",
" XX     XX     ",
" XXX   XXX     ",
" XXX   XXX     ",
" X X   X X     ",
" X XX XX X     ",
" X XX XX X     ",
" X  X X  X     ",
" X  XXX  X     ",
" X  XXX  X     ",
" X   X   X     ",
"               ",
"               ",
"               ",
"               ",
};

static char *font_Nr[] = {
"15 20 2 1",
"  c #1E1E2E",
"X c #FF0000",
"               ",
"               ",
"               ",
"               ",
" XX    X       ",
" XX    X       ",
" XXX   X       ",
" XXX   X       ",
" X XX  X       ",
" X  X  X       ",
" X  XX X       ",
" X   X X       ",
" X   XXX       ",
" X    XX       ",
" X    XX       ",
" X     X       ",
"               ",
"               ",
"               ",
"               ",
};

static char *font_Or[] = {
"15 20 2 1",
"  c #1E1E2E",
"X c #FF0000",
"               ",
"               ",
"               ",
"               ",
"   XXXXX       ",
"  XX   XX      ",
" XX     XX     ",
" X       X     ",
" X       X     ",
" X       XX    ",
" X       XX    ",
" X       X     ",
" X       X     ",
" XX     XX     ",
"  XX   XX      ",
"   XXXXX       ",
"               ",
"               ",
"               ",
"               ",
};

static char *font_Pr[] = {
"15 20 2 1",
"  c #1E1E2E",
"X c #FF0000",
"               ",
"               ",
"               ",
"               ",
" XXXXXX        ",
" X    XX       ",
" X     X       ",
" X     XX      ",
" X     X       ",
" X    XX       ",
" XXXXXX        ",
" X             ",
" X             ",
" X             ",
" X             ",
" X             ",
"               ",
"               ",
"               ",
"               ",
};

static char *font_Qr[] = {
"15 20 2 1",
"  c #1E1E2E",
"X c #FF0000",
"               ",
"               ",
"               ",
"               ",
"   XXXXX       ",
"  XX   XX      ",
" XX     XX     ",
" X       X     ",
" X       X     ",
" X       XX    ",
" X       XX    ",
" X       X     ",
" X       X     ",
" XX   X XX     ",
"  XX  XXX      ",
"   XXXXXX      ",
"               ",
"               ",
"               ",
"               ",
};

static char *font_Rr[] = {
"15 20 2 1",
"  c #1E1E2E",
"X c #FF0000",
"               ",
"               ",
"               ",
"               ",
" XXXXXX        ",
" X    XX       ",
" X     X       ",
" X     XX      ",
" X     X       ",
" X    XX       ",
" XXXXXX        ",
" X    X        ",
" X     X       ",
" X     X       ",
" X     X       ",
" X     XX      ",
"               ",
"               ",
"               ",
"               ",
};

static char *font_Sr[] = {
"15 20 2 1",
"  c #1E1E2E",
"X c #FF0000",
"               ",
"               ",
"               ",
"               ",
"  XXXX         ",
" XX  XX        ",
" X    XX       ",
" X     X       ",
" XX            ",
"  XXX          ",
"    XXX        ",
"      XX       ",
"       X       ",
" X     X       ",
" XX   XX       ",
"  XXXXX        ",
"               ",
"               ",
"               ",
"               ",
};

static char *font_Tr[] = {
"15 20 2 1",
"  c #1E1E2E",
"X c #FF0000",
"               ",
"               ",
"               ",
"               ",
"XXXXXXXXX      ",
"    X          ",
"    X          ",
"    X          ",
"    X          ",
"    X          ",
"    X          ",
"    X          ",
"    X          ",
"    X          ",
"    X          ",
"    X          ",
"               ",
"               ",
"               ",
"               ",
};

static char *font_Ur[] = {
"15 20 2 1",
"  c #1E1E2E",
"X c #FF0000",
"               ",
"               ",
"               ",
"               ",
" X     XX      ",
" X     XX      ",
" X     XX      ",
" X     XX      ",
" X     XX      ",
" X     XX      ",
" X     XX      ",
" X     XX      ",
" X     X       ",
" XX    X       ",
"  XX  XX       ",
"   XXX         ",
"               ",
"               ",
"               ",
"               ",
};

static char *font_Vr[] = {
"15 20 2 1",
"  c #1E1E2E",
"X c #FF0000",
"               ",
"               ",
"               ",
"               ",
"XX      X      ",
" X     XX      ",
" X     XX      ",
" XX    X       ",
"  X   XX       ",
"  X   XX       ",
"  XX  X        ",
"   X XX        ",
"   X XX        ",
"   XXX         ",
"    XX         ",
"    X          ",
"               ",
"               ",
"               ",
"               ",
};

static char *font_Wr[] = {
"15 20 2 1",
"  c #1E1E2E",
"X c #FF0000",
"               ",
"               ",
"               ",
"               ",
"XX     X     X ",
" X    XX     X ",
" X    XXX   XX ",
" X    XXX   X  ",
" XX  XX X   X  ",
"  X  XX X   X  ",
"  X  X  XX XX  ",
"  XX X   X X   ",
"  XXXX   XXX   ",
"   XX    XXX   ",
"   XX    XXX   ",
"   XX     X    ",
"               ",
"               ",
"               ",
"               ",
};

static char *font_Xr[] = {
"15 20 2 1",
"  c #1E1E2E",
"X c #FF0000",
"               ",
"               ",
"               ",
"               ",
" X     X       ",
" XX   XX       ",
"  X   X        ",
"  XX XX        ",
"   XXX         ",
"   XXX         ",
"   XXX         ",
"  XX X         ",
"  XX XX        ",
" XX   X        ",
" X    XX       ",
"XX     XX      ",
"               ",
"               ",
"               ",
"               ",
};

static char *font_Yr[] = {
"15 20 2 1",
"  c #1E1E2E",
"X c #FF0000",
"               ",
"               ",
"               ",
"               ",
"XX     XX      ",
" X     X       ",
" XX   XX       ",
"  X   X        ",
"  XX XX        ",
"   XXX         ",
"    XX         ",
"    X          ",
"    X          ",
"    X          ",
"    X          ",
"    X          ",
"               ",
"               ",
"               ",
"               ",
};

static char *font_Zr[] = {
"15 20 2 1",
"  c #1E1E2E",
"X c #FF0000",
"               ",
"               ",
"               ",
"               ",
" XXXXXXX       ",
"      X        ",
"     XX        ",
"     X         ",
"    XX         ",
"   XX          ",
"   XX          ",
"  XX           ",
"  X            ",
" XX            ",
" X             ",
"XXXXXXXX       ",
"               ",
"               ",
"               ",
"               ",
};

