/* XPM */
static char *font_a[] = {
"15 20 2 1",
"  c #1E1E2E",
"X c #FFFFFF",
"               ",
"               ",
"               ",
"               ",
"               ",
"               ",
"               ",
"               ",
"  XXXX         ",
"     XX        ",
"     XX        ",
"  XXXXX        ",
" XX   X        ",
"XX   XX        ",
" X   XX        ",
" XXXX X        ",
"               ",
"               ",
"               ",
"               ",
};

static char *font_b[] = {
"15 20 2 1",
"  c #1E1E2E",
"X c #FFFFFF",
"               ",
"               ",
"               ",
"               ",
" X             ",
" X             ",
" X             ",
" X             ",
" X XXX         ",
" XX   X        ",
" XX   XX       ",
" X     X       ",
" X     X       ",
" XX   XX       ",
" XX   X        ",
" X XXX         ",
"               ",
"               ",
"               ",
"               ",
};

static char *font_c[] = {
"15 20 2 1",
"  c #1E1E2E",
"X c #FFFFFF",
"               ",
"               ",
"               ",
"               ",
"               ",
"               ",
"               ",
"               ",
"  XXXX         ",
" XX  XX        ",
" X             ",
" X             ",
" X             ",
" X             ",
" XX  XX        ",
"  XXXX         ",
"               ",
"               ",
"               ",
"               ",
};

static char *font_d[] = {
"15 20 2 1",
"  c #1E1E2E",
"X c #FFFFFF",
"               ",
"               ",
"               ",
"               ",
"      XX       ",
"      XX       ",
"      XX       ",
"      XX       ",
"  XXXXXX       ",
" XX  XXX       ",
" X    XX       ",
" X    XX       ",
" X    XX       ",
" X    XX       ",
" XX  XXX       ",
"  XXXX X       ",
"               ",
"               ",
"               ",
"               ",
};

static char *font_e[] = {
"15 20 2 1",
"  c #1E1E2E",
"X c #FFFFFF",
"               ",
"               ",
"               ",
"               ",
"               ",
"               ",
"               ",
"               ",
"  XXXX         ",
" XX  XX        ",
" X    X        ",
" XXXXXXX       ",
" X             ",
" X             ",
" XX  XX        ",
"  XXXX         ",
"               ",
"               ",
"               ",
"               ",
};

static char *font_f[] = {
"15 20 2 1",
"  c #1E1E2E",
"X c #FFFFFF",
"               ",
"               ",
"               ",
"               ",
"   XXX         ",
"  XX           ",
"  X            ",
" XX            ",
" XXXX          ",
" XX            ",
" XX            ",
" XX            ",
" XX            ",
" XX            ",
" XX            ",
"  X            ",
"               ",
"               ",
"               ",
"               ",
};

static char *font_g[] = {
"15 20 2 1",
"  c #1E1E2E",
"X c #FFFFFF",
"               ",
"               ",
"               ",
"               ",
"               ",
"               ",
"               ",
"               ",
"  XXXXXX       ",
" XX  XX        ",
" X    XX       ",
" X    XX       ",
" XX   X        ",
" XXXXX         ",
" X             ",
" XXXXXX        ",
" X    XX       ",
" X     X       ",
" X    XX       ",
"  XXXXX        ",
};

static char *font_h[] = {
"15 20 2 1",
"  c #1E1E2E",
"X c #FFFFFF",
"               ",
"               ",
"               ",
"               ",
" X             ",
" X             ",
" X             ",
" X             ",
" XXXXX         ",
" XX  XX        ",
" X    X        ",
" X    X        ",
" X    X        ",
" X    X        ",
" X    XX       ",
" X     X       ",
"               ",
"               ",
"               ",
"               ",
};

static char *font_i[] = {
"15 20 2 1",
"  c #1E1E2E",
"X c #FFFFFF",
"               ",
"               ",
"               ",
"               ",
"               ",
"               ",
" X             ",
"               ",
" X             ",
" X             ",
" X             ",
" X             ",
" X             ",
" X             ",
" X             ",
" X             ",
"               ",
"               ",
"               ",
"               ",
};

static char *font_j[] = {
"15 20 2 1",
"  c #1E1E2E",
"X c #FFFFFF",
"               ",
"               ",
"               ",
"               ",
"               ",
"               ",
"  XX           ",
"               ",
"  XX           ",
"  XX           ",
"  XX           ",
"  XX           ",
"  XX           ",
"  XX           ",
"  XX           ",
"  XX           ",
"  XX           ",
"  XX           ",
"  X            ",
"XXX            ",
};

static char *font_k[] = {
"15 20 2 1",
"  c #1E1E2E",
"X c #FFFFFF",
"               ",
"               ",
"               ",
"               ",
" X             ",
" X             ",
" X             ",
" X             ",
" X    X        ",
" X    X        ",
" X   X         ",
" XXXXX         ",
" X   XX        ",
" X    X        ",
" X    X        ",
" X    XX       ",
"               ",
"               ",
"               ",
"               ",
};

static char *font_l[] = {
"15 20 2 1",
"  c #1E1E2E",
"X c #FFFFFF",
"               ",
"               ",
"               ",
"               ",
" X             ",
" X             ",
" X             ",
" X             ",
" X             ",
" X             ",
" X             ",
" X             ",
" X             ",
" X             ",
" X             ",
" XX            ",
"               ",
"               ",
"               ",
"               ",
};

static char *font_m[] = {
"15 20 2 1",
"  c #1E1E2E",
"X c #FFFFFF",
"               ",
"               ",
"               ",
"               ",
"               ",
"               ",
"               ",
"               ",
"XXXXX  XXX     ",
" XX XXX  X     ",
" X   XX  XX    ",
" X   XX  XX    ",
" X   XX  XX    ",
" X   XX  XX    ",
" X   XX   X    ",
" X   X    X    ",
"               ",
"               ",
"               ",
"               ",
};

static char *font_n[] = {
"15 20 2 1",
"  c #1E1E2E",
"X c #FFFFFF",
"               ",
"               ",
"               ",
"               ",
"               ",
"               ",
"               ",
"               ",
"XX XXX         ",
" XX  XX        ",
" X    X        ",
" X    X        ",
" X    X        ",
" X    X        ",
" X    XX       ",
" X     X       ",
"               ",
"               ",
"               ",
"               ",
};

static char *font_o[] = {
"15 20 2 1",
"  c #1E1E2E",
"X c #FFFFFF",
"               ",
"               ",
"               ",
"               ",
"               ",
"               ",
"               ",
"               ",
"  XXXX         ",
" XX  XX        ",
" X    XX       ",
" X     X       ",
" X     X       ",
" X    XX       ",
" XX  XX        ",
"  XXXX         ",
"               ",
"               ",
"               ",
"               ",
};

static char *font_p[] = {
"15 20 2 1",
"  c #1E1E2E",
"X c #FFFFFF",
"               ",
"               ",
"               ",
"               ",
"               ",
"               ",
"               ",
"               ",
"XX XXX         ",
" XX   X        ",
" XX   XX       ",
" X     X       ",
" X     X       ",
" XX   XX       ",
" XX   X        ",
" X XXX         ",
" X             ",
" X             ",
" X             ",
" X             ",
};

static char *font_q[] = {
"15 20 2 1",
"  c #1E1E2E",
"X c #FFFFFF",
"               ",
"               ",
"               ",
"               ",
"               ",
"               ",
"               ",
"               ",
"  XXXXXX       ",
" XX  XXX       ",
" X    XX       ",
" X    XX       ",
" X    XX       ",
" X    XX       ",
" XX  XXX       ",
"  XXXXXX       ",
"      XX       ",
"      XX       ",
"      XX       ",
"      XX       ",
};

static char *font_r[] = {
"15 20 2 1",
"  c #1E1E2E",
"X c #FFFFFF",
"               ",
"               ",
"               ",
"               ",
"               ",
"               ",
"               ",
"               ",
"XX XX          ",
" XXX           ",
" XX            ",
" X             ",
" X             ",
" X             ",
" X             ",
" X             ",
"               ",
"               ",
"               ",
"               ",
};

static char *font_s[] = {
"15 20 2 1",
"  c #1E1E2E",
"X c #FFFFFF",
"               ",
"               ",
"               ",
"               ",
"               ",
"               ",
"               ",
"               ",
"  XXX          ",
" X   X         ",
" X             ",
" XXXX          ",
"    XX         ",
" X   XX        ",
" X   XX        ",
"  XXXX         ",
"               ",
"               ",
"               ",
"               ",
};

static char *font_t[] = {
"15 20 2 1",
"  c #1E1E2E",
"X c #FFFFFF",
"               ",
"               ",
"               ",
"               ",
"               ",
"               ",
"               ",
" XX            ",
"XXXXX          ",
" XX            ",
" XX            ",
" XX            ",
" XX            ",
" XX            ",
"  X            ",
"   XXX         ",
"               ",
"               ",
"               ",
"               ",
};

static char *font_u[] = {
"15 20 2 1",
"  c #1E1E2E",
"X c #FFFFFF",
"               ",
"               ",
"               ",
"               ",
"               ",
"               ",
"               ",
"               ",
" X    X        ",
" X    X        ",
" X    X        ",
" X    X        ",
" X    X        ",
" X    X        ",
" XX  XX        ",
"  XXX XX       ",
"               ",
"               ",
"               ",
"               ",
};

static char *font_v[] = {
"15 20 2 1",
"  c #1E1E2E",
"X c #FFFFFF",
"               ",
"               ",
"               ",
"               ",
"               ",
"               ",
"               ",
"               ",
"XX    X        ",
" X   XX        ",
" X   XX        ",
" XX  X         ",
"  X XX         ",
"  XXX          ",
"  XXX          ",
"   XX          ",
"               ",
"               ",
"               ",
"               ",
};

static char *font_w[] = {
"15 20 2 1",
"  c #1E1E2E",
"X c #FFFFFF",
"               ",
"               ",
"               ",
"               ",
"               ",
"               ",
"               ",
"               ",
"XX   X    X    ",
" X  XXX  XX    ",
" X  XXX  X     ",
" XX X X  X     ",
" XX X XXXX     ",
"  XXX XXX      ",
"  XX   XX      ",
"  XX   XX      ",
"               ",
"               ",
"               ",
"               ",
};

static char *font_x[] = {
"15 20 2 1",
"  c #1E1E2E",
"X c #FFFFFF",
"               ",
"               ",
"               ",
"               ",
"               ",
"               ",
"               ",
"               ",
" X   X         ",
" XX XX         ",
"  XXX          ",
"   XX          ",
"  XXX          ",
"  X X          ",
" X   X         ",
"XX   XX        ",
"               ",
"               ",
"               ",
"               ",
};

static char *font_y[] = {
"15 20 2 1",
"  c #1E1E2E",
"X c #FFFFFF",
"               ",
"               ",
"               ",
"               ",
"               ",
"               ",
"               ",
"               ",
"XX    X        ",
" X    X        ",
" X   XX        ",
" XX  X         ",
"  X XX         ",
"  X X          ",
"  XXX          ",
"   XX          ",
"   X           ",
"   X           ",
"  XX           ",
" XX            ",
};

static char *font_z[] = {
"15 20 2 1",
"  c #1E1E2E",
"X c #FFFFFF",
"               ",
"               ",
"               ",
"               ",
"               ",
"               ",
"               ",
"               ",
" XXXXX         ",
"    XX         ",
"    X          ",
"   X           ",
"  XX           ",
"  X            ",
" X             ",
"XXXXXX         ",
"               ",
"               ",
"               ",
"               ",
};
