/* XPM */
static char *font_q[] = {
"15 20 2 1",
"  c None",
"X c #FFFFFF",
"               ",
"               ",
"               ",
"               ",
"               ",
"               ",
"               ",
"               ",
"  XXXXXX       ",
" XX  XXX       ",
" X    XX       ",
" X    XX       ",
" X    XX       ",
" X    XX       ",
" XX  XXX       ",
"  XXXXXX       ",
"      XX       ",
"      XX       ",
"      XX       ",
"      XX       ",
};
