/* XPM */
static char *font_t[] = {
"6 12 2 1",
". c #000000",
"@ c #FFFFFF",
"..##..",
"######",
"######",
"######",
".####.",
".###..",
"..###.",
".###..",
"..###.",
".#####",
"..####",
".#####"
};
