/* XPM */
static char *font_f[] = {
"15 20 2 1",
"  c None",
"X c #FFFFFF",
"               ",
"               ",
"               ",
"               ",
"   XXX         ",
"  XX           ",
"  X            ",
" XX            ",
" XXXX          ",
" XX            ",
" XX            ",
" XX            ",
" XX            ",
" XX            ",
" XX            ",
"  X            ",
"               ",
"               ",
"               ",
"               ",
};
