/* XPM */
static char *font_p[] = {
"9 14 2 1",
". c #000000",
"@ c #FFFFFF",
"#######..",
"#########",
"#########",
"###...###",
"###...###",
"###...###",
"#########",
"########.",
"#######..",
"###......",
"###......",
"###......",
"###......",
".#......."
};
