/* XPM */
static char *font_j[] = {
"15 20 2 1",
"  c None",
"X c #FFFFFF",
"               ",
"               ",
"               ",
"               ",
"               ",
"               ",
"  XX           ",
"               ",
"  XX           ",
"  XX           ",
"  XX           ",
"  XX           ",
"  XX           ",
"  XX           ",
"  XX           ",
"  XX           ",
"  XX           ",
"  XX           ",
"  X            ",
"XXX            ",
};
