/* XPM */
static char *font_n[] = {
"15 20 2 1",
"  c None",
"X c #FFFFFF",
"               ",
"               ",
"               ",
"               ",
"               ",
"               ",
"               ",
"               ",
"XX XXX         ",
" XX  XX        ",
" X    X        ",
" X    X        ",
" X    X        ",
" X    X        ",
" X    XX       ",
" X     X       ",
"               ",
"               ",
"               ",
"               ",
};
