/* XPM */
static char *font_n[] = {
"9 9 2 1",
". c #000000",
"@ c #FFFFFF",
"..#####..",
"#########",
"#########",
"###...###",
"###...###",
"###...###",
"###...###",
"###...###",
"###...###"
};
