/* XPM */
static char *font_r[] = {
"15 20 2 1",
"  c None",
"X c #FFFFFF",
"               ",
"               ",
"               ",
"               ",
"               ",
"               ",
"               ",
"               ",
"XX XX          ",
" XXX           ",
" XX            ",
" X             ",
" X             ",
" X             ",
" X             ",
" X             ",
"               ",
"               ",
"               ",
"               ",
};
