/* XPM */
static char *font_o[] = {
"9 9 2 1",
". c #000000",
"@ c #FFFFFF",
"..#####..",
"#########",
"#########",
"###...###",
"###...###",
"###...###",
"#########",
".#######.",
".######.."
};
