/* XPM */
static char *font_w[] = {
"12 9 2 1",
". c #000000",
"@ c #FFFFFF",
"###......###",
"###......###",
"###......###",
"###..##..###",
"###.####.###",
"###..##..###",
"############",
".##########.",
".#########.."
};
