/* XPM */
static char *font_e[] = {
"15 20 2 1",
"  c None",
"X c #FFFFFF",
"               ",
"               ",
"               ",
"               ",
"               ",
"               ",
"               ",
"               ",
"  XXXX         ",
" XX  XX        ",
" X    X        ",
" XXXXXXX       ",
" X             ",
" X             ",
" XX  XX        ",
"  XXXX         ",
"               ",
"               ",
"               ",
"               ",
};
