/* XPM */
static char *font_g[] = {
"9 15 2 1",
". c #000000",
"@ c #FFFFFF",
"..#######",
"#########",
"#########",
"###...###",
"###...###",
"###...###",
"#########",
".########",
".########",
"......###",
".#....###",
"###...###",
"#########",
".#######.",
".######.."
};
