/* XPM */
static char *font_b[] = {
"15 20 2 1",
"  c None",
"X c #FFFFFF",
"               ",
"               ",
"               ",
"               ",
" X             ",
" X             ",
" X             ",
" X             ",
" X XXX         ",
" XX   X        ",
" XX   XX       ",
" X     X       ",
" X     X       ",
" XX   XX       ",
" XX   X        ",
" X XXX         ",
"               ",
"               ",
"               ",
"               ",
};
