/* XPM */
static char *font_d[] = {
"15 20 2 1",
"  c None",
"X c #FFFFFF",
"               ",
"               ",
"               ",
"               ",
"      XX       ",
"      XX       ",
"      XX       ",
"      XX       ",
"  XXXXXX       ",
" XX  XXX       ",
" X    XX       ",
" X    XX       ",
" X    XX       ",
" X    XX       ",
" XX  XXX       ",
"  XXXX X       ",
"               ",
"               ",
"               ",
"               ",
};
