/* XPM */
static char *font_y[] = {
"15 20 2 1",
"  c None",
"X c #FFFFFF",
"               ",
"               ",
"               ",
"               ",
"               ",
"               ",
"               ",
"               ",
"XX    X        ",
" X    X        ",
" X   XX        ",
" XX  X         ",
"  X XX         ",
"  X X          ",
"  XXX          ",
"   XX          ",
"   X           ",
"   X           ",
"  XX           ",
" XX            ",
};
