/* XPM */
static char *font_s[] = {
"15 20 2 1",
"  c None",
"X c #FFFFFF",
"               ",
"               ",
"               ",
"               ",
"               ",
"               ",
"               ",
"               ",
"  XXX          ",
" X   X         ",
" X             ",
" XXXX          ",
"    XX         ",
" X   XX        ",
" X   XX        ",
"  XXXX         ",
"               ",
"               ",
"               ",
"               ",
};
