/* XPM */
static char *font_p[] = {
"15 20 2 1",
"  c None",
"X c #FFFFFF",
"               ",
"               ",
"               ",
"               ",
"               ",
"               ",
"               ",
"               ",
"XX XXX         ",
" XX   X        ",
" XX   XX       ",
" X     X       ",
" X     X       ",
" XX   XX       ",
" XX   X        ",
" X XXX         ",
" X             ",
" X             ",
" X             ",
" X             ",
};
