/* XPM */
static char *font_t[] = {
"15 20 2 1",
"  c None",
"X c #FFFFFF",
"               ",
"               ",
"               ",
"               ",
"               ",
"               ",
"               ",
" XX            ",
"XXXXX          ",
" XX            ",
" XX            ",
" XX            ",
" XX            ",
" XX            ",
"  X            ",
"   XXX         ",
"               ",
"               ",
"               ",
"               ",
};
