/* XPM */
static char *font_g[] = {
"15 20 2 1",
"  c None",
"X c #FFFFFF",
"               ",
"               ",
"               ",
"               ",
"               ",
"               ",
"               ",
"               ",
"  XXXXXX       ",
" XX  XX        ",
" X    XX       ",
" X    XX       ",
" XX   X        ",
" XXXXX         ",
" X             ",
" XXXXXX        ",
" X    XX       ",
" X     X       ",
" X    XX       ",
"  XXXXX        ",
};
