/* XPM */
static char *font_w[] = {
"15 20 2 1",
"  c None",
"X c #FFFFFF",
"               ",
"               ",
"               ",
"               ",
"               ",
"               ",
"               ",
"               ",
"XX   X    X    ",
" X  XXX  XX    ",
" X  XXX  X     ",
" XX X X  X     ",
" XX X XXXX     ",
"  XXX XXX      ",
"  XX   XX      ",
"  XX   XX      ",
"               ",
"               ",
"               ",
"               ",
};
