/* XPM */
static char *font_i[] = {
"3 12 2 1",
". c #000000",
"@ c #FFFFFF",
"###",
"###",
"###",
"...",
".#.",
"###",
"###",
"###",
"###",
"###",
"###",
"###"
};
