/* XPM */
static char *font_k[] = {
"15 20 2 1",
"  c None",
"X c #FFFFFF",
"               ",
"               ",
"               ",
"               ",
" X             ",
" X             ",
" X             ",
" X             ",
" X    X        ",
" X    X        ",
" X   X         ",
" XXXXX         ",
" X   XX        ",
" X    X        ",
" X    X        ",
" X    XX       ",
"               ",
"               ",
"               ",
"               ",
};
