/* XPM */
static char *font_m[] = {
"15 20 2 1",
"  c None",
"X c #FFFFFF",
"               ",
"               ",
"               ",
"               ",
"               ",
"               ",
"               ",
"               ",
"XXXXX  XXX     ",
" XX XXX  X     ",
" X   XX  XX    ",
" X   XX  XX    ",
" X   XX  XX    ",
" X   XX  XX    ",
" X   XX   X    ",
" X   X    X    ",
"               ",
"               ",
"               ",
"               ",
};
