/* XPM */
static char *font_q[] = {
"9 14 2 1",
". c #000000",
"@ c #FFFFFF",
"..#######",
"#########",
"#########",
"###...###",
"###...###",
"###...###",
"#########",
".########",
".########",
"......###",
"......###",
"......###",
"......###",
".......#."
};
