/* XPM */
static char *font_z[] = {
"15 20 2 1",
"  c None",
"X c #FFFFFF",
"               ",
"               ",
"               ",
"               ",
"               ",
"               ",
"               ",
"               ",
" XXXXX         ",
"    XX         ",
"    X          ",
"   X           ",
"  XX           ",
"  X            ",
" X             ",
"XXXXXX         ",
"               ",
"               ",
"               ",
"               ",
};
