/* XPM */
static char *font_f[] = {
"8 12 2 1",
". c #000000",
"@ c #FFFFFF",
"...####.",
"..######",
".######.",
"..##....",
"######..",
"######..",
"######..",
".####...",
"..##....",
".####...",
"..##....",
".####..."
};
