/* XPM */
static char *font_z[] = {
"9 9 2 1",
". c #000000",
"@ c #FFFFFF",
"#########",
"#########",
"#########",
"...####..",
"..#####..",
".#####...",
"#########",
"#########",
"#########"
};
