/* XPM */
static char *font_l[] = {
"15 20 2 1",
"  c None",
"X c #FFFFFF",
"               ",
"               ",
"               ",
"               ",
" X             ",
" X             ",
" X             ",
" X             ",
" X             ",
" X             ",
" X             ",
" X             ",
" X             ",
" X             ",
" X             ",
" XX            ",
"               ",
"               ",
"               ",
"               ",
};
