/* XPM */
static char *font_h[] = {
"15 20 2 1",
"  c None",
"X c #FFFFFF",
"               ",
"               ",
"               ",
"               ",
" X             ",
" X             ",
" X             ",
" X             ",
" XXXXX         ",
" XX  XX        ",
" X    X        ",
" X    X        ",
" X    X        ",
" X    X        ",
" X    XX       ",
" X     X       ",
"               ",
"               ",
"               ",
"               ",
};
