/* XPM */
static char *font_y[] = {
"9 14 2 1",
". c #000000",
"@ c #FFFFFF",
"###...###",
"###...###",
"###...###",
"###...###",
"###.#.###",
"#########",
"..#####..",
"..#####..",
"...###...",
"...###...",
"...###...",
"...###...",
"...###...",
"....#...."
};
