/* XPM */
static char *font_v[] = {
"15 20 2 1",
"  c None",
"X c #FFFFFF",
"               ",
"               ",
"               ",
"               ",
"               ",
"               ",
"               ",
"               ",
"XX    X        ",
" X   XX        ",
" X   XX        ",
" XX  X         ",
"  X XX         ",
"  XXX          ",
"  XXX          ",
"   XX          ",
"               ",
"               ",
"               ",
"               ",
};

