/* XPM */
static char *font_j[] = {
"5 17 2 1",
". c #000000",
"@ c #FFFFFF",
"..###",
"..###",
"..###",
".....",
"...#.",
"..###",
"..###",
"..###",
"..###",
"..###",
"..###",
"..###",
"..###",
".####",
"#####",
".##..",
".#.#."
};
