/* XPM */
static char *font_o[] = {
"15 20 2 1",
"  c None",
"X c #FFFFFF",
"               ",
"               ",
"               ",
"               ",
"               ",
"               ",
"               ",
"               ",
"  XXXX         ",
" XX  XX        ",
" X    XX       ",
" X     X       ",
" X     X       ",
" X    XX       ",
" XX  XX        ",
"  XXXX         ",
"               ",
"               ",
"               ",
"               ",
};
