/* XPM */
static char *font_c[] = {
"9 9 2 1",
". c #000000",
"@ c #FFFFFF",
"..#######",
"#########",
"#########",
"###......",
"###......",
"###......",
"#########",
".########",
".########"
};
