/* XPM */
static char *font_x[] = {
"15 20 2 1",
"  c None",
"X c #FFFFFF",
"               ",
"               ",
"               ",
"               ",
"               ",
"               ",
"               ",
"               ",
" X   X         ",
" XX XX         ",
"  XXX          ",
"   XX          ",
"  XXX          ",
"  X X          ",
" X   X         ",
"XX   XX        ",
"               ",
"               ",
"               ",
"               ",
};
