/* XPM */
static char * por_xpm[] = {
"60 30 2 1",
" 	c #0F0F31",
".	c #FFFFFF",
"   ......................................................   ",
"   ......................................................   ",
"   ......................................................   ",
"...                                                      ...",
"...                                                      ...",
"...                                                      ...",
"...                                                      ...",
"...      .........   ..........   ..........             ...",
"...      .........   ..........   ..........             ...",
"...      .........   ..........   ..........             ...",
"...      ...   ...   ...    ...   ...    ...             ...",
"...      ...   ...   ...    ...   ...    ...             ...",
"...      ...   ...   ...    ...   ...    ...             ...",
"...      ...   ...   ...    ...   ...    ...             ...",
"...      .........   ...    ...   ..........             ...",
"...      .........   ...    ...   ..........             ...",
"...      .........   ...    ...   ..........             ...",
"...      ...         ...    ...   ......                 ...",
"...      ...         ...    ...   ........               ...",
"...      ...         ...    ...   ...  ...               ...",
"...      ...         ..........   ...  .....             ...",
"...      ...         ..........   ...    ...             ...",
"...      ...         ..........   ...    ...             ...",
"...                                                      ...",
"...                                                      ...",
"...                                                      ...",
"...                                                      ...",
"   ......................................................   ",
"   ......................................................   ",
"   ......................................................   "};
