/* XPM */
static char * regular_cursor[] = {
"15 20 2 1",
" 	c #1E1E2E",
".	c #FFFFFF",
"               ",
"  .            ",
"  ..           ",
"  ...          ",
"  ....         ",
"  .....        ",
"  ......       ",
"  .......      ",
"  ........     ",
"  .........    ",
"  ..........   ",
"  ...........  ",
"  ............ ",
"  .............",
"  .....        ",
"  ....         ",
"  ...          ",
"  ..           ",
"  .            ",
"               "};
