/* XPM */
static char * sec_30[] = {
"30 30 2 1",
" 	c #0F0F31",
".	c #FFFFFF",
"  ..........................  ",
"  ..........................  ",
"..                          ..",
"..                          ..",
"..                          ..",
"..                          ..",
"..                          ..",
"..                          ..",
"..                          ..",
"..                          ..",
"..    ...... ......         ..",
"..    ...... ......         ..",
"..        .. ..  ..         ..",
"..        .. ..  .. .....   ..",
"..        .. ..  .. .....   ..",
"..     ..... ..  .. ..      ..",
"..     ..... ..  .. .....   ..",
"..        .. ..  .. .....   ..",
"..        .. ..  ..    ..   ..",
"..    ...... ...... .....   ..",
"..    ...... ...... .....   ..",
"..                          ..",
"..                          ..",
"..                          ..",
"..                          ..",
"..                          ..",
"..                          ..",
"..                          ..",
"  ..........................  ",
"  ..........................  "
};
