/* XPM */
static char *title_A[] = {
"30 45 3 1",
"  c #FFFFFE",
". c #1E1E2E",
"# c #FFFFFF",
"##############################",
"##############################",
"##############################",
"##############################",
"##############################",
"########............##########",
"##########..........##########",
"##########..........##########",
"##########..........##########",
"##########..........##########",
"##########..........##########",
"##########..........##########",
"##########..........##########",
"##########..........##########",
"##########..........##########",
"##########..........##########",
"##########..........##########",
"##########..........##########",
"##########..........##########",
"##########.........###########",
"##########........############",
"##########......##############",
"##########.....###############",
"##########...#################",
"##########.###################",
"###################.##########",
"##################..##########",
"################....##########",
"##############......##########",
"#############.......##########",
"###########.........##########",
"##########..........##########",
"##########..........##########",
"##########..........##########",
"##########..........##########",
"##########..........##########",
"##########..........##########",
"##########..........##########",
"##########..........##########",
"##########..........##########",
"##########..........##########",
"##########..........##########",
"##########..........##########",
"##########..........##########",
"##########..........##########"
};

/* XPM */
static char *title_E[] = {
"30 45 3 1",
"  c #FFFFFE",
". c #1E1E2E",
"# c #FFFFFF",
"##############################",
"##############################",
"##############################",
"##############################",
"##############################",
"########............##########",
"##########..........##########",
"##########..........#########.",
"##########..........########..",
"##########..........######....",
"##########..........####......",
"##########..........###.......",
"##########..........#.........",
"##########....................",
"##########....................",
"##########....................",
"##########....................",
"##########....................",
"##########....................",
"########################......",
"######################........",
"#####################.........",
"###################...........",
"#################.............",
"##########...................#",
"##########.................###",
"##########................####",
"##########..............######",
"##########.............#######",
"##########...........#########",
"##########..........##########",
"##########..........##########",
"##########..........##########",
"##########..........##########",
"##########..........##########",
"##########..........##########",
"##########..........##########",
"##########..........##########",
"##########..........##########",
"##########..........##########",
"##############################",
"##############################",
"##############################",
"##############################",
"##############################"
};

/* XPM */
static char *title_H[] = {
"30 45 3 1",
"  c #FFFFFE",
". c #1E1E2E",
"# c #FFFFFF",
"##########..........##########",
"##########..........##########",
"##########..........##########",
"##########..........##########",
"##########..........##########",
"##########..........##########",
"##########..........##########",
"##########..........##########",
"##########..........##########",
"##########..........##########",
"##########..........##########",
"##########..........##########",
"##########..........##########",
"##########..........##########",
"##########..........##########",
"##########..........##########",
"##########..........##########",
"##########........############",
"##########.......#############",
"##########.....###############",
"##########...#################",
"##########..##################",
"##############################",
"##################..##########",
"################....##########",
"###############.....##########",
"#############.......##########",
"############........##########",
"##########..........##########",
"########............##########",
"#######.##..........##########",
"##########..........##########",
"##########..........##########",
"##########..........##########",
"##########..........##########",
"##########..........##########",
"##########..........##########",
"##########..........##########",
"##########..........##########",
"##########..........##########",
"##########..........##########",
"##########..........##########",
"##########..........##########",
"##########..........##########",
"##########..........##########"
};

/* XPM */
static char *title_K[] = {
"30 45 3 1",
"  c #FFFFFE",
". c #1E1E2E",
"# c #FFFFFF",
"##########........##########..",
"##########........##########..",
"##########........##########..",
"##########........##########..",
"##########........##########..",
"##########........##########..",
"##########........##########..",
"##########........##########..",
"##########........##########..",
"##########........##########..",
"##########........##########..",
"##########........##########..",
"##########........##########..",
"##########........##########..",
"##########........##########..",
"##########........##########..",
"##########........##########..",
"##########........#########...",
"##########......#########.....",
"##########.....#########......",
"########################......",
"##########################....",
"############################..",
"#############################.",
"##############################",
"#######............###########",
"##########..........##########",
"##########..........##########",
"##########..........##########",
"##########..........##########",
"##########..........##########",
"##########..........##########",
"##########..........##########",
"##########..........##########",
"##########..........##########",
"##########..........##########",
"##########..........##########",
"##########..........##########",
"##########..........##########",
"##########..........##########",
"##########..........##########",
"##########..........##########",
"##########..........##########",
"##########..........##########",
"##########..........##########"
};

/* XPM */
static char *title_P[] = {
"30 45 3 1",
"  c #FFFFFE",
". c #1E1E2E",
"# c #FFFFFF",
"##############################",
"##############################",
"##############################",
"##############################",
"##############################",
"########............##########",
"##########..........##########",
"##########..........##########",
"##########..........##########",
"##########..........##########",
"##########..........##########",
"##########..........##########",
"##########..........##########",
"##########..........##########",
"##########..........##########",
"##########..........##########",
"##########..........##########",
"##########..........##########",
"##########..........##########",
"##########..........#########.",
"##########.........#########..",
"##########################....",
"#########################.....",
"#######################.......",
"######################........",
"####################..........",
"##########....................",
"##########....................",
"##########....................",
"##########....................",
"##########....................",
"##########....................",
"##########....................",
"##########....................",
"##########....................",
"##########....................",
"##########....................",
"##########....................",
"##########....................",
"##########....................",
"##########....................",
"##########....................",
"##########....................",
"##########....................",
"##########...................."
};

/* XPM */
static char *title_T[] = {
"30 45 3 1",
"  c #FFFFFE",
". c #1E1E2E",
"# c #FFFFFF",
"##############################",
"##############################",
"##############################",
"##############################",
"##############################",
"..........########............",
"..........##########..........",
"..........##########..........",
"..........##########..........",
"..........##########..........",
"..........##########..........",
"..........##########..........",
"..........##########..........",
"..........##########..........",
"..........##########..........",
"..........##########..........",
"..........##########..........",
"..........##########..........",
"..........##########..........",
"..........##########..........",
"..........##########..........",
"..........##########..........",
"..........##########..........",
"..........##########..........",
"..........##########..........",
"..........##########..........",
"..........##########..........",
"..........##########..........",
"..........##########..........",
"..........##########..........",
"..........##########..........",
"..........##########..........",
"..........##########..........",
"..........##########..........",
"..........##########..........",
"..........##########..........",
"..........##########..........",
"..........##########..........",
"..........##########..........",
"..........##########..........",
"..........##########..........",
"..........##########..........",
"..........##########..........",
"..........##########..........",
"..........##########.........."
};

/* XPM */
static char *title_W[] = {
"40 45 3 1",
"  c #FFFFFE",
". c #1E1E2E",
"# c #FFFFFF",
"##########......########......##########",
"##########......########......##########",
"##########......########......##########",
"##########......########......##########",
"##########......########......##########",
"##########......########......##########",
"##########......########......##########",
"##########......########......##########",
"##########......########......##########",
"##########......########......##########",
"##########......########......##########",
"##########......########......##########",
"##########......########......##########",
"##########......########......##########",
"##########......########......##########",
"##########......########......##########",
"##########......########......##########",
"##########......########......##########",
"##########......########......##########",
"##########......########......##########",
"##########......########......##########",
"##########......########......##########",
"##########......########......##########",
"##########......########......##########",
"##########......########......##########",
"##########......########......##########",
"##########......########......##########",
"##########......########......##########",
"##########......########......##########",
"##########......########......##########",
"##########......########......##########",
"##########......########......##########",
"##########......########......##########",
"##########......########......##########",
"##########......########......##########",
"##########......########......##########",
"##########......########......##########",
"##########......########......##########",
"##########......########......##########",
"########........########......##########",
"########################################",
"########################################",
"########################################",
"########################################",
"###################..###################"
};

/* XPM */
static char *title_Y[] = {
"31 45 3 1",
"  c #FFFFFE",
". c #1E1E2E",
"# c #FFFFFF",
"##########..........##########.",
"##########..........##########.",
"##########..........##########.",
"##########..........##########.",
"##########..........##########.",
"##########..........##########.",
"##########..........##########.",
"##########..........##########.",
"##########..........##########.",
"##########..........##########.",
"##########..........##########.",
"##########..........##########.",
"##########..........##########.",
"##########..........##########.",
"##########..........##########.",
"##########..........##########.",
"##########..........##########.",
"##########..........##########.",
"#######.##..........##########.",
"########............##########.",
"##########..........##########.",
".############....############..",
"...############.###########....",
".....####################......",
".......################........",
".........###########...........",
"..........##########...........",
"..........##########...........",
"..........##########...........",
"..........##########...........",
"..........##########...........",
"..........##########...........",
"..........##########...........",
"..........##########...........",
"..........##########...........",
"..........##########...........",
"..........##########...........",
"..........##########...........",
"..........##########...........",
"..........##########...........",
"..........##########...........",
"..........##########...........",
"..........##########...........",
"..........##########...........",
"..........##########..........."
};
