/* XPM */
static char *title_E[] = {
"30 45 2 1",
". c #000000",
"@ c #FFFFFF",
"##############################",
"##############################",
"##############################",
"##############################",
"##############################",
"########............##########",
"##########..........##########",
"##########..........#########.",
"##########..........########..",
"##########..........######....",
"##########..........####......",
"##########..........###.......",
"##########..........#.........",
"##########....................",
"##########....................",
"##########....................",
"##########....................",
"##########....................",
"##########....................",
"########################......",
"######################........",
"#####################.........",
"###################...........",
"#################.............",
"##########...................#",
"##########.................###",
"##########................####",
"##########..............######",
"##########.............#######",
"##########...........#########",
"##########..........##########",
"##########..........##########",
"##########..........##########",
"##########..........##########",
"##########..........##########",
"##########..........##########",
"##########..........##########",
"##########..........##########",
"##########..........##########",
"##########..........##########",
"##############################",
"##############################",
"##############################",
"##############################",
"##############################"
};
