/* XPM */
static char *title_T[] = {
"30 45 3 1",
"  c #FFFFFE",
". c #000000",
"# c #FFFFFF",
"##############################",
"##############################",
"##############################",
"##############################",
"##############################",
"..........########............",
"..........##########..........",
"..........##########..........",
"..........##########..........",
"..........##########..........",
"..........##########..........",
"..........##########..........",
"..........##########..........",
"..........##########..........",
"..........##########..........",
"..........##########..........",
"..........##########..........",
"..........##########..........",
"..........##########..........",
"..........##########..........",
"..........##########..........",
"..........##########..........",
"..........##########..........",
"..........##########..........",
"..........##########..........",
"..........##########..........",
"..........##########..........",
"..........##########..........",
"..........##########..........",
"..........##########..........",
"..........##########..........",
"..........##########..........",
"..........##########..........",
"..........##########..........",
"..........##########..........",
"..........##########..........",
"..........##########..........",
"..........##########..........",
"..........##########..........",
"..........##########..........",
"..........##########..........",
"..........##########..........",
"..........##########..........",
"..........##########..........",
"..........##########.........."
};
