/* XPM */
static char *title_Y[] = {
"31 45 3 1",
"  c #FFFFFE",
". c #000000",
"# c #FFFFFF",
"##########..........##########.",
"##########..........##########.",
"##########..........##########.",
"##########..........##########.",
"##########..........##########.",
"##########..........##########.",
"##########..........##########.",
"##########..........##########.",
"##########..........##########.",
"##########..........##########.",
"##########..........##########.",
"##########..........##########.",
"##########..........##########.",
"##########..........##########.",
"##########..........##########.",
"##########..........##########.",
"##########..........##########.",
"##########..........##########.",
"#######.##..........##########.",
"########............##########.",
"##########..........##########.",
".############....############..",
"...############.###########....",
".....####################......",
".......################........",
".........###########...........",
"..........##########...........",
"..........##########...........",
"..........##########...........",
"..........##########...........",
"..........##########...........",
"..........##########...........",
"..........##########...........",
"..........##########...........",
"..........##########...........",
"..........##########...........",
"..........##########...........",
"..........##########...........",
"..........##########...........",
"..........##########...........",
"..........##########...........",
"..........##########...........",
"..........##########...........",
"..........##########...........",
"..........##########..........."
};
