/* XPM */
static char *title_K[] = {
"30 45 3 1",
"  c #FFFFFE",
". c #000000",
"# c #FFFFFF",
"##########........##########..",
"##########........##########..",
"##########........##########..",
"##########........##########..",
"##########........##########..",
"##########........##########..",
"##########........##########..",
"##########........##########..",
"##########........##########..",
"##########........##########..",
"##########........##########..",
"##########........##########..",
"##########........##########..",
"##########........##########..",
"##########........##########..",
"##########........##########..",
"##########........##########..",
"##########........#########...",
"##########......#########.....",
"##########.....#########......",
"########################......",
"##########################....",
"############################..",
"#############################.",
"##############################",
"#######............###########",
"##########..........##########",
"##########..........##########",
"##########..........##########",
"##########..........##########",
"##########..........##########",
"##########..........##########",
"##########..........##########",
"##########..........##########",
"##########..........##########",
"##########..........##########",
"##########..........##########",
"##########..........##########",
"##########..........##########",
"##########..........##########",
"##########..........##########",
"##########..........##########",
"##########..........##########",
"##########..........##########",
"##########..........##########"
};
