/* XPM */
static char *title_W[] = {
"40 45 2 1",
". c #000000",
"@ c #FFFFFF",
"##########......########......##########",
"##########......########......##########",
"##########......########......##########",
"##########......########......##########",
"##########......########......##########",
"##########......########......##########",
"##########......########......##########",
"##########......########......##########",
"##########......########......##########",
"##########......########......##########",
"##########......########......##########",
"##########......########......##########",
"##########......########......##########",
"##########......########......##########",
"##########......########......##########",
"##########......########......##########",
"##########......########......##########",
"##########......########......##########",
"##########......########......##########",
"##########......########......##########",
"##########......########......##########",
"##########......########......##########",
"##########......########......##########",
"##########......########......##########",
"##########......########......##########",
"##########......########......##########",
"##########......########......##########",
"##########......########......##########",
"##########......########......##########",
"##########......########......##########",
"##########......########......##########",
"##########......########......##########",
"##########......########......##########",
"##########......########......##########",
"##########......########......##########",
"##########......########......##########",
"##########......########......##########",
"##########......########......##########",
"##########......########......##########",
"########........########......##########",
"########################################",
"########################################",
"########################################",
"########################################",
"###################..###################"
};
