/* XPM */
static char *title_P[] = {
"30 45 2 1",
". c #000000",
"@ c #FFFFFF",
"##############################",
"##############################",
"##############################",
"##############################",
"##############################",
"########............##########",
"##########..........##########",
"##########..........##########",
"##########..........##########",
"##########..........##########",
"##########..........##########",
"##########..........##########",
"##########..........##########",
"##########..........##########",
"##########..........##########",
"##########..........##########",
"##########..........##########",
"##########..........##########",
"##########..........##########",
"##########..........#########.",
"##########.........#########..",
"##########################....",
"#########################.....",
"#######################.......",
"######################........",
"####################..........",
"##########....................",
"##########....................",
"##########....................",
"##########....................",
"##########....................",
"##########....................",
"##########....................",
"##########....................",
"##########....................",
"##########....................",
"##########....................",
"##########....................",
"##########....................",
"##########....................",
"##########....................",
"##########....................",
"##########....................",
"##########....................",
"##########...................."
};
